<?xml version="1.0" encoding="UTF-8" standalone="no"?>
<!DOCTYPE svg PUBLIC "-//W3C//DTD SVG 1.1//EN"
 "http://www.w3.org/Graphics/SVG/1.1/DTD/svg11.dtd">
<!-- Generated by graphviz version 2.40.1 (20161225.0304)
 -->
<!-- Title: dependencies Pages: 1 -->
<svg width="816pt" height="284pt"
 viewBox="0.00 0.00 816.00 284.00" xmlns="http://www.w3.org/2000/svg" xmlns:xlink="http://www.w3.org/1999/xlink">
<g id="graph0" class="graph" transform="scale(1 1) rotate(0) translate(4 280)">
<title>dependencies</title>
<polygon fill="#ffffff" stroke="transparent" points="-4,4 -4,-280 812,-280 812,4 -4,4"/>
<text text-anchor="start" x="383.0091" y="-42.4" font-family="sans-serif" font-weight="bold" font-size="14.00" fill="#000000">Legend</text>
<polygon fill="#ffffb3" stroke="transparent" points="170,-10 170,-30 190,-30 190,-10 170,-10"/>
<text text-anchor="start" x="193.629" y="-15.4" font-family="sans-serif" font-size="14.00" fill="#000000"> &#160;Declarations</text>
<polygon fill="#8dd3c7" stroke="transparent" points="283,-10 283,-30 303,-30 303,-10 283,-10"/>
<text text-anchor="start" x="306.7251" y="-15.4" font-family="sans-serif" font-size="14.00" fill="#000000"> &#160;Module</text>
<polygon fill="#80b1d3" stroke="transparent" points="369,-10 369,-30 389,-30 389,-10 369,-10"/>
<text text-anchor="start" x="392.7812" y="-15.4" font-family="sans-serif" font-size="14.00" fill="#000000"> &#160;Bootstrap</text>
<polygon fill="#fdb462" stroke="transparent" points="466,-10 466,-30 486,-30 486,-10 466,-10"/>
<text text-anchor="start" x="489.6732" y="-15.4" font-family="sans-serif" font-size="14.00" fill="#000000"> &#160;Providers</text>
<polygon fill="#fb8072" stroke="transparent" points="562,-10 562,-30 582,-30 582,-10 562,-10"/>
<text text-anchor="start" x="585.7258" y="-15.4" font-family="sans-serif" font-size="14.00" fill="#000000"> &#160;Exports</text>
<g id="clust1" class="cluster">
<title>cluster_ErrorModule</title>
<polygon fill="none" stroke="#000000" stroke-dasharray="1,5" points="8,-70 8,-268 800,-268 800,-70 8,-70"/>
</g>
<g id="clust2" class="cluster">
<title>cluster_ErrorModule_declarations</title>
<polygon fill="none" stroke="#000000" points="414,-78 414,-130 792,-130 792,-78 414,-78"/>
</g>
<g id="clust5" class="cluster">
<title>cluster_ErrorModule_imports</title>
<polygon fill="none" stroke="#000000" points="16,-78 16,-130 406,-130 406,-78 16,-78"/>
</g>
<g id="clust6" class="cluster">
<title>cluster_ErrorModule_exports</title>
<polygon fill="none" stroke="#000000" points="147,-208 147,-260 531,-260 531,-208 147,-208"/>
</g>
<!-- ErrorSummaryComponent -->
<g id="node1" class="node">
<title>ErrorSummaryComponent</title>
<polygon fill="#ffffb3" stroke="#000000" points="783.8061,-122 618.1939,-122 618.1939,-86 783.8061,-86 783.8061,-122"/>
<text text-anchor="middle" x="701" y="-99.8" font-family="Times,serif" font-size="14.00" fill="#000000">ErrorSummaryComponent</text>
</g>
<!-- ErrorModule -->
<g id="node3" class="node">
<title>ErrorModule</title>
<polygon fill="#8dd3c7" stroke="#000000" points="386.5842,-187 383.5842,-191 362.5842,-191 359.5842,-187 297.4158,-187 297.4158,-151 386.5842,-151 386.5842,-187"/>
<text text-anchor="middle" x="342" y="-164.8" font-family="Times,serif" font-size="14.00" fill="#000000">ErrorModule</text>
</g>
<!-- ErrorSummaryComponent&#45;&gt;ErrorModule -->
<g id="edge1" class="edge">
<title>ErrorSummaryComponent&#45;&gt;ErrorModule</title>
<path fill="none" stroke="#000000" d="M701,-122.2843C701,-143.3211 701,-175 701,-175 701,-175 396.7417,-175 396.7417,-175"/>
<polygon fill="#000000" stroke="#000000" points="396.7418,-171.5001 386.7417,-175 396.7417,-178.5001 396.7418,-171.5001"/>
</g>
<!-- ControlMessagesComponent -->
<g id="node2" class="node">
<title>ControlMessagesComponent</title>
<polygon fill="#ffffb3" stroke="#000000" points="600.0336,-122 421.9664,-122 421.9664,-86 600.0336,-86 600.0336,-122"/>
<text text-anchor="middle" x="511" y="-99.8" font-family="Times,serif" font-size="14.00" fill="#000000">ControlMessagesComponent</text>
</g>
<!-- ControlMessagesComponent&#45;&gt;ErrorModule -->
<g id="edge2" class="edge">
<title>ControlMessagesComponent&#45;&gt;ErrorModule</title>
<path fill="none" stroke="#000000" d="M472.5682,-122.0225C472.5682,-139.3734 472.5682,-163 472.5682,-163 472.5682,-163 396.569,-163 396.569,-163"/>
<polygon fill="#000000" stroke="#000000" points="396.569,-159.5001 386.569,-163 396.5689,-166.5001 396.569,-159.5001"/>
</g>
<!-- ErrorSummaryComponent  -->
<g id="node7" class="node">
<title>ErrorSummaryComponent </title>
<polygon fill="#fb8072" stroke="#000000" points="523.3059,-252 354.6941,-252 354.6941,-216 523.3059,-216 523.3059,-252"/>
<text text-anchor="middle" x="439" y="-229.8" font-family="Times,serif" font-size="14.00" fill="#000000">ErrorSummaryComponent </text>
</g>
<!-- ErrorModule&#45;&gt;ErrorSummaryComponent  -->
<g id="edge6" class="edge">
<title>ErrorModule&#45;&gt;ErrorSummaryComponent </title>
<path fill="none" stroke="#000000" stroke-dasharray="5,2" d="M370.5696,-187.1061C370.5696,-187.1061 370.5696,-205.991 370.5696,-205.991"/>
<polygon fill="#000000" stroke="#000000" points="367.0697,-205.9909 370.5696,-215.991 374.0697,-205.991 367.0697,-205.9909"/>
</g>
<!-- ControlMessagesComponent  -->
<g id="node8" class="node">
<title>ControlMessagesComponent </title>
<polygon fill="#fb8072" stroke="#000000" points="337.033,-252 154.967,-252 154.967,-216 337.033,-216 337.033,-252"/>
<text text-anchor="middle" x="246" y="-229.8" font-family="Times,serif" font-size="14.00" fill="#000000">ControlMessagesComponent </text>
</g>
<!-- ErrorModule&#45;&gt;ControlMessagesComponent  -->
<g id="edge7" class="edge">
<title>ErrorModule&#45;&gt;ControlMessagesComponent </title>
<path fill="none" stroke="#000000" stroke-dasharray="5,2" d="M317.2372,-187.1061C317.2372,-187.1061 317.2372,-205.991 317.2372,-205.991"/>
<polygon fill="#000000" stroke="#000000" points="313.7373,-205.9909 317.2372,-215.991 320.7373,-205.991 313.7373,-205.9909"/>
</g>
<!-- CommonModule -->
<g id="node4" class="node">
<title>CommonModule</title>
<polygon fill="#8dd3c7" stroke="#000000" points="397.6681,-122 394.6681,-126 373.6681,-126 370.6681,-122 286.3319,-122 286.3319,-86 397.6681,-86 397.6681,-122"/>
<text text-anchor="middle" x="342" y="-99.8" font-family="Times,serif" font-size="14.00" fill="#000000">CommonModule</text>
</g>
<!-- CommonModule&#45;&gt;ErrorModule -->
<g id="edge3" class="edge">
<title>CommonModule&#45;&gt;ErrorModule</title>
<path fill="none" stroke="#000000" d="M342,-122.1061C342,-122.1061 342,-140.991 342,-140.991"/>
<polygon fill="#000000" stroke="#000000" points="338.5001,-140.9909 342,-150.991 345.5001,-140.991 338.5001,-140.9909"/>
</g>
<!-- MainPipeModule -->
<g id="node5" class="node">
<title>MainPipeModule</title>
<polygon fill="#8dd3c7" stroke="#000000" points="267.9874,-122 264.9874,-126 243.9874,-126 240.9874,-122 154.0126,-122 154.0126,-86 267.9874,-86 267.9874,-122"/>
<text text-anchor="middle" x="211" y="-99.8" font-family="Times,serif" font-size="14.00" fill="#000000">MainPipeModule</text>
</g>
<!-- MainPipeModule&#45;&gt;ErrorModule -->
<g id="edge4" class="edge">
<title>MainPipeModule&#45;&gt;ErrorModule</title>
<path fill="none" stroke="#000000" d="M211.4886,-122.0225C211.4886,-139.3734 211.4886,-163 211.4886,-163 211.4886,-163 287.4504,-163 287.4504,-163"/>
<polygon fill="#000000" stroke="#000000" points="287.4504,-166.5001 297.4504,-163 287.4504,-159.5001 287.4504,-166.5001"/>
</g>
<!-- TranslateModule -->
<g id="node6" class="node">
<title>TranslateModule</title>
<polygon fill="#8dd3c7" stroke="#000000" points="135.6332,-122 132.6332,-126 111.6332,-126 108.6332,-122 24.3668,-122 24.3668,-86 135.6332,-86 135.6332,-122"/>
<text text-anchor="middle" x="80" y="-99.8" font-family="Times,serif" font-size="14.00" fill="#000000">TranslateModule</text>
</g>
<!-- TranslateModule&#45;&gt;ErrorModule -->
<g id="edge5" class="edge">
<title>TranslateModule&#45;&gt;ErrorModule</title>
<path fill="none" stroke="#000000" d="M80,-122.2843C80,-143.3211 80,-175 80,-175 80,-175 287.2583,-175 287.2583,-175"/>
<polygon fill="#000000" stroke="#000000" points="287.2583,-178.5001 297.2583,-175 287.2583,-171.5001 287.2583,-178.5001"/>
</g>
</g>
</svg>
