<?xml version="1.0" encoding="UTF-8" standalone="no"?>
<!DOCTYPE svg PUBLIC "-//W3C//DTD SVG 1.1//EN"
 "http://www.w3.org/Graphics/SVG/1.1/DTD/svg11.dtd">
<!-- Generated by graphviz version 2.40.1 (20161225.0304)
 -->
<!-- Title: dependencies Pages: 1 -->
<svg width="2794pt" height="284pt"
 viewBox="0.00 0.00 2794.00 284.00" xmlns="http://www.w3.org/2000/svg" xmlns:xlink="http://www.w3.org/1999/xlink">
<g id="graph0" class="graph" transform="scale(1 1) rotate(0) translate(4 280)">
<title>dependencies</title>
<polygon fill="#ffffff" stroke="transparent" points="-4,4 -4,-280 2790,-280 2790,4 -4,4"/>
<text text-anchor="start" x="1372.0091" y="-42.4" font-family="sans-serif" font-weight="bold" font-size="14.00" fill="#000000">Legend</text>
<polygon fill="#ffffb3" stroke="transparent" points="1159,-10 1159,-30 1179,-30 1179,-10 1159,-10"/>
<text text-anchor="start" x="1182.629" y="-15.4" font-family="sans-serif" font-size="14.00" fill="#000000"> &#160;Declarations</text>
<polygon fill="#8dd3c7" stroke="transparent" points="1272,-10 1272,-30 1292,-30 1292,-10 1272,-10"/>
<text text-anchor="start" x="1295.7251" y="-15.4" font-family="sans-serif" font-size="14.00" fill="#000000"> &#160;Module</text>
<polygon fill="#80b1d3" stroke="transparent" points="1358,-10 1358,-30 1378,-30 1378,-10 1358,-10"/>
<text text-anchor="start" x="1381.7812" y="-15.4" font-family="sans-serif" font-size="14.00" fill="#000000"> &#160;Bootstrap</text>
<polygon fill="#fdb462" stroke="transparent" points="1455,-10 1455,-30 1475,-30 1475,-10 1455,-10"/>
<text text-anchor="start" x="1478.6732" y="-15.4" font-family="sans-serif" font-size="14.00" fill="#000000"> &#160;Providers</text>
<polygon fill="#fb8072" stroke="transparent" points="1551,-10 1551,-30 1571,-30 1571,-10 1551,-10"/>
<text text-anchor="start" x="1574.7258" y="-15.4" font-family="sans-serif" font-size="14.00" fill="#000000"> &#160;Exports</text>
<g id="clust1" class="cluster">
<title>cluster_AppModule</title>
<polygon fill="none" stroke="#000000" stroke-dasharray="1,5" points="8,-70 8,-268 2778,-268 2778,-70 8,-70"/>
</g>
<g id="clust2" class="cluster">
<title>cluster_AppModule_declarations</title>
<polygon fill="none" stroke="#000000" points="2468,-78 2468,-130 2770,-130 2770,-78 2468,-78"/>
</g>
<g id="clust5" class="cluster">
<title>cluster_AppModule_imports</title>
<polygon fill="none" stroke="#000000" points="624,-78 624,-130 2460,-130 2460,-78 624,-78"/>
</g>
<g id="clust6" class="cluster">
<title>cluster_AppModule_exports</title>
<polygon fill="none" stroke="#000000" points="1446,-208 1446,-260 1578,-260 1578,-208 1446,-208"/>
</g>
<g id="clust7" class="cluster">
<title>cluster_AppModule_bootstrap</title>
<polygon fill="none" stroke="#000000" points="1586,-208 1586,-260 1710,-260 1710,-208 1586,-208"/>
</g>
<g id="clust8" class="cluster">
<title>cluster_AppModule_providers</title>
<polygon fill="none" stroke="#000000" points="16,-78 16,-130 616,-130 616,-78 16,-78"/>
</g>
<!-- AppComponent -->
<g id="node1" class="node">
<title>AppComponent</title>
<polygon fill="#ffffb3" stroke="#000000" points="2761.9399,-122 2656.0601,-122 2656.0601,-86 2761.9399,-86 2761.9399,-122"/>
<text text-anchor="middle" x="2709" y="-99.8" font-family="Times,serif" font-size="14.00" fill="#000000">AppComponent</text>
</g>
<!-- AppModule -->
<g id="node3" class="node">
<title>AppModule</title>
<polygon fill="#8dd3c7" stroke="#000000" points="1621.6571,-187 1618.6571,-191 1597.6571,-191 1594.6571,-187 1538.3429,-187 1538.3429,-151 1621.6571,-151 1621.6571,-187"/>
<text text-anchor="middle" x="1580" y="-164.8" font-family="Times,serif" font-size="14.00" fill="#000000">AppModule</text>
</g>
<!-- AppComponent&#45;&gt;AppModule -->
<g id="edge1" class="edge">
<title>AppComponent&#45;&gt;AppModule</title>
<path fill="none" stroke="#000000" d="M2709,-122.3228C2709,-145.6602 2709,-183 2709,-183 2709,-183 1631.8585,-183 1631.8585,-183"/>
<polygon fill="#000000" stroke="#000000" points="1631.8586,-179.5001 1621.8585,-183 1631.8585,-186.5001 1631.8586,-179.5001"/>
</g>
<!-- CompanyBaseComponent -->
<g id="node2" class="node">
<title>CompanyBaseComponent</title>
<polygon fill="#ffffb3" stroke="#000000" points="2638.4846,-122 2475.5154,-122 2475.5154,-86 2638.4846,-86 2638.4846,-122"/>
<text text-anchor="middle" x="2557" y="-99.8" font-family="Times,serif" font-size="14.00" fill="#000000">CompanyBaseComponent</text>
</g>
<!-- CompanyBaseComponent&#45;&gt;AppModule -->
<g id="edge2" class="edge">
<title>CompanyBaseComponent&#45;&gt;AppModule</title>
<path fill="none" stroke="#000000" d="M2557,-122.1554C2557,-144.3519 2557,-179 2557,-179 2557,-179 1631.6679,-179 1631.6679,-179"/>
<polygon fill="#000000" stroke="#000000" points="1631.668,-175.5001 1621.6679,-179 1631.6679,-182.5001 1631.668,-175.5001"/>
</g>
<!-- TranslateModule  -->
<g id="node17" class="node">
<title>TranslateModule </title>
<polygon fill="#fb8072" stroke="#000000" points="1569.6327,-252 1454.3673,-252 1454.3673,-216 1569.6327,-216 1569.6327,-252"/>
<text text-anchor="middle" x="1512" y="-229.8" font-family="Times,serif" font-size="14.00" fill="#000000">TranslateModule </text>
</g>
<!-- AppModule&#45;&gt;TranslateModule  -->
<g id="edge16" class="edge">
<title>AppModule&#45;&gt;TranslateModule </title>
<path fill="none" stroke="#000000" stroke-dasharray="5,2" d="M1553.8691,-187.1061C1553.8691,-187.1061 1553.8691,-205.991 1553.8691,-205.991"/>
<polygon fill="#000000" stroke="#000000" points="1550.3691,-205.9909 1553.8691,-215.991 1557.3691,-205.991 1550.3691,-205.9909"/>
</g>
<!-- AppComponent  -->
<g id="node18" class="node">
<title>AppComponent </title>
<polygon fill="#80b1d3" stroke="#000000" points="1702.439,-252 1593.561,-252 1593.561,-216 1702.439,-216 1702.439,-252"/>
<text text-anchor="middle" x="1648" y="-229.8" font-family="Times,serif" font-size="14.00" fill="#000000">AppComponent </text>
</g>
<!-- AppModule&#45;&gt;AppComponent  -->
<g id="edge17" class="edge">
<title>AppModule&#45;&gt;AppComponent </title>
<path fill="none" stroke="#000000" stroke-dasharray="1,5" d="M1607.6793,-187.1061C1607.6793,-187.1061 1607.6793,-205.991 1607.6793,-205.991"/>
<polygon fill="#000000" stroke="#000000" points="1604.1794,-205.9909 1607.6793,-215.991 1611.1794,-205.991 1604.1794,-205.9909"/>
</g>
<!-- BrowserModule -->
<g id="node4" class="node">
<title>BrowserModule</title>
<polygon fill="#8dd3c7" stroke="#000000" points="2452.4734,-122 2449.4734,-126 2428.4734,-126 2425.4734,-122 2345.5266,-122 2345.5266,-86 2452.4734,-86 2452.4734,-122"/>
<text text-anchor="middle" x="2399" y="-99.8" font-family="Times,serif" font-size="14.00" fill="#000000">BrowserModule</text>
</g>
<!-- BrowserModule&#45;&gt;AppModule -->
<g id="edge3" class="edge">
<title>BrowserModule&#45;&gt;AppModule</title>
<path fill="none" stroke="#000000" d="M2399,-122.2843C2399,-143.3211 2399,-175 2399,-175 2399,-175 1631.7403,-175 1631.7403,-175"/>
<polygon fill="#000000" stroke="#000000" points="1631.7403,-171.5001 1621.7403,-175 1631.7403,-178.5001 1631.7403,-171.5001"/>
</g>
<!-- FormsModule -->
<g id="node5" class="node">
<title>FormsModule</title>
<polygon fill="#8dd3c7" stroke="#000000" points="2327.8288,-122 2324.8288,-126 2303.8288,-126 2300.8288,-122 2232.1712,-122 2232.1712,-86 2327.8288,-86 2327.8288,-122"/>
<text text-anchor="middle" x="2280" y="-99.8" font-family="Times,serif" font-size="14.00" fill="#000000">FormsModule</text>
</g>
<!-- FormsModule&#45;&gt;AppModule -->
<g id="edge4" class="edge">
<title>FormsModule&#45;&gt;AppModule</title>
<path fill="none" stroke="#000000" d="M2280,-122.308C2280,-142.1455 2280,-171 2280,-171 2280,-171 1631.6919,-171 1631.6919,-171"/>
<polygon fill="#000000" stroke="#000000" points="1631.6919,-167.5001 1621.6919,-171 1631.6918,-174.5001 1631.6919,-167.5001"/>
</g>
<!-- ReactiveFormsModule -->
<g id="node6" class="node">
<title>ReactiveFormsModule</title>
<polygon fill="#8dd3c7" stroke="#000000" points="2214.3047,-122 2211.3047,-126 2190.3047,-126 2187.3047,-122 2069.6953,-122 2069.6953,-86 2214.3047,-86 2214.3047,-122"/>
<text text-anchor="middle" x="2142" y="-99.8" font-family="Times,serif" font-size="14.00" fill="#000000">ReactiveFormsModule</text>
</g>
<!-- ReactiveFormsModule&#45;&gt;AppModule -->
<g id="edge5" class="edge">
<title>ReactiveFormsModule&#45;&gt;AppModule</title>
<path fill="none" stroke="#000000" d="M2142,-122.2222C2142,-140.8285 2142,-167 2142,-167 2142,-167 1631.7822,-167 1631.7822,-167"/>
<polygon fill="#000000" stroke="#000000" points="1631.7822,-163.5001 1621.7822,-167 1631.7822,-170.5001 1631.7822,-163.5001"/>
</g>
<!-- ErrorModule -->
<g id="node7" class="node">
<title>ErrorModule</title>
<polygon fill="#8dd3c7" stroke="#000000" points="2051.5842,-122 2048.5842,-126 2027.5842,-126 2024.5842,-122 1962.4158,-122 1962.4158,-86 2051.5842,-86 2051.5842,-122"/>
<text text-anchor="middle" x="2007" y="-99.8" font-family="Times,serif" font-size="14.00" fill="#000000">ErrorModule</text>
</g>
<!-- ErrorModule&#45;&gt;AppModule -->
<g id="edge6" class="edge">
<title>ErrorModule&#45;&gt;AppModule</title>
<path fill="none" stroke="#000000" d="M2007,-122.0225C2007,-139.3734 2007,-163 2007,-163 2007,-163 1631.72,-163 1631.72,-163"/>
<polygon fill="#000000" stroke="#000000" points="1631.7201,-159.5001 1621.72,-163 1631.72,-166.5001 1631.7201,-159.5001"/>
</g>
<!-- MainPipeModule -->
<g id="node8" class="node">
<title>MainPipeModule</title>
<polygon fill="#8dd3c7" stroke="#000000" points="1943.9874,-122 1940.9874,-126 1919.9874,-126 1916.9874,-122 1830.0126,-122 1830.0126,-86 1943.9874,-86 1943.9874,-122"/>
<text text-anchor="middle" x="1887" y="-99.8" font-family="Times,serif" font-size="14.00" fill="#000000">MainPipeModule</text>
</g>
<!-- MainPipeModule&#45;&gt;AppModule -->
<g id="edge7" class="edge">
<title>MainPipeModule&#45;&gt;AppModule</title>
<path fill="none" stroke="#000000" d="M1887,-122.0091C1887,-138.0494 1887,-159 1887,-159 1887,-159 1631.7229,-159 1631.7229,-159"/>
<polygon fill="#000000" stroke="#000000" points="1631.7229,-155.5001 1621.7229,-159 1631.7229,-162.5001 1631.7229,-155.5001"/>
</g>
<!-- AddressModule -->
<g id="node9" class="node">
<title>AddressModule</title>
<polygon fill="#8dd3c7" stroke="#000000" points="1811.9216,-122 1808.9216,-126 1787.9216,-126 1784.9216,-122 1706.0784,-122 1706.0784,-86 1811.9216,-86 1811.9216,-122"/>
<text text-anchor="middle" x="1759" y="-99.8" font-family="Times,serif" font-size="14.00" fill="#000000">AddressModule</text>
</g>
<!-- AddressModule&#45;&gt;AppModule -->
<g id="edge8" class="edge">
<title>AddressModule&#45;&gt;AppModule</title>
<path fill="none" stroke="#000000" d="M1759,-122.1243C1759,-136.7832 1759,-155 1759,-155 1759,-155 1631.9675,-155 1631.9675,-155"/>
<polygon fill="#000000" stroke="#000000" points="1631.9676,-151.5001 1621.9675,-155 1631.9675,-158.5001 1631.9676,-151.5001"/>
</g>
<!-- FileIoModule -->
<g id="node10" class="node">
<title>FileIoModule</title>
<polygon fill="#8dd3c7" stroke="#000000" points="1688.4888,-122 1685.4888,-126 1664.4888,-126 1661.4888,-122 1595.5112,-122 1595.5112,-86 1688.4888,-86 1688.4888,-122"/>
<text text-anchor="middle" x="1642" y="-99.8" font-family="Times,serif" font-size="14.00" fill="#000000">FileIoModule</text>
</g>
<!-- FileIoModule&#45;&gt;AppModule -->
<g id="edge9" class="edge">
<title>FileIoModule&#45;&gt;AppModule</title>
<path fill="none" stroke="#000000" d="M1608.6669,-122.1061C1608.6669,-122.1061 1608.6669,-140.991 1608.6669,-140.991"/>
<polygon fill="#000000" stroke="#000000" points="1605.167,-140.9909 1608.6669,-150.991 1612.167,-140.991 1605.167,-140.9909"/>
</g>
<!-- HttpClientModule -->
<g id="node11" class="node">
<title>HttpClientModule</title>
<polygon fill="#8dd3c7" stroke="#000000" points="1577.1611,-122 1574.1611,-126 1553.1611,-126 1550.1611,-122 1458.8389,-122 1458.8389,-86 1577.1611,-86 1577.1611,-122"/>
<text text-anchor="middle" x="1518" y="-99.8" font-family="Times,serif" font-size="14.00" fill="#000000">HttpClientModule</text>
</g>
<!-- HttpClientModule&#45;&gt;AppModule -->
<g id="edge10" class="edge">
<title>HttpClientModule&#45;&gt;AppModule</title>
<path fill="none" stroke="#000000" d="M1557.7511,-122.1061C1557.7511,-122.1061 1557.7511,-140.991 1557.7511,-140.991"/>
<polygon fill="#000000" stroke="#000000" points="1554.2511,-140.9909 1557.7511,-150.991 1561.2511,-140.991 1554.2511,-140.9909"/>
</g>
<!-- CommonFeatureModule -->
<g id="node12" class="node">
<title>CommonFeatureModule</title>
<polygon fill="#8dd3c7" stroke="#000000" points="1440.6456,-122 1437.6456,-126 1416.6456,-126 1413.6456,-122 1287.3544,-122 1287.3544,-86 1440.6456,-86 1440.6456,-122"/>
<text text-anchor="middle" x="1364" y="-99.8" font-family="Times,serif" font-size="14.00" fill="#000000">CommonFeatureModule</text>
</g>
<!-- CommonFeatureModule&#45;&gt;AppModule -->
<g id="edge11" class="edge">
<title>CommonFeatureModule&#45;&gt;AppModule</title>
<path fill="none" stroke="#000000" d="M1364,-122.1243C1364,-136.7832 1364,-155 1364,-155 1364,-155 1528.0969,-155 1528.0969,-155"/>
<polygon fill="#000000" stroke="#000000" points="1528.0969,-158.5001 1538.0969,-155 1528.0969,-151.5001 1528.0969,-158.5001"/>
</g>
<!-- TherapeuticModule -->
<g id="node13" class="node">
<title>TherapeuticModule</title>
<polygon fill="#8dd3c7" stroke="#000000" points="1269.4032,-122 1266.4032,-126 1245.4032,-126 1242.4032,-122 1142.5968,-122 1142.5968,-86 1269.4032,-86 1269.4032,-122"/>
<text text-anchor="middle" x="1206" y="-99.8" font-family="Times,serif" font-size="14.00" fill="#000000">TherapeuticModule</text>
</g>
<!-- TherapeuticModule&#45;&gt;AppModule -->
<g id="edge12" class="edge">
<title>TherapeuticModule&#45;&gt;AppModule</title>
<path fill="none" stroke="#000000" d="M1206,-122.0091C1206,-138.0494 1206,-159 1206,-159 1206,-159 1528.1861,-159 1528.1861,-159"/>
<polygon fill="#000000" stroke="#000000" points="1528.1861,-162.5001 1538.1861,-159 1528.1861,-155.5001 1528.1861,-162.5001"/>
</g>
<!-- DataLoaderModule -->
<g id="node14" class="node">
<title>DataLoaderModule</title>
<polygon fill="#8dd3c7" stroke="#000000" points="1124.6192,-122 1121.6192,-126 1100.6192,-126 1097.6192,-122 999.3808,-122 999.3808,-86 1124.6192,-86 1124.6192,-122"/>
<text text-anchor="middle" x="1062" y="-99.8" font-family="Times,serif" font-size="14.00" fill="#000000">DataLoaderModule</text>
</g>
<!-- DataLoaderModule&#45;&gt;AppModule -->
<g id="edge13" class="edge">
<title>DataLoaderModule&#45;&gt;AppModule</title>
<path fill="none" stroke="#000000" d="M1062,-122.0225C1062,-139.3734 1062,-163 1062,-163 1062,-163 1528.0487,-163 1528.0487,-163"/>
<polygon fill="#000000" stroke="#000000" points="1528.0487,-166.5001 1538.0487,-163 1528.0486,-159.5001 1528.0487,-166.5001"/>
</g>
<!-- TranslateModule.forRoot(args) -->
<g id="node15" class="node">
<title>TranslateModule.forRoot(args)</title>
<polygon fill="#8dd3c7" stroke="#000000" points="981.8223,-122 978.8223,-126 957.8223,-126 954.8223,-122 790.1777,-122 790.1777,-86 981.8223,-86 981.8223,-122"/>
<text text-anchor="middle" x="886" y="-99.8" font-family="Times,serif" font-size="14.00" fill="#000000">TranslateModule.forRoot(args)</text>
</g>
<!-- TranslateModule.forRoot(args)&#45;&gt;AppModule -->
<g id="edge14" class="edge">
<title>TranslateModule.forRoot(args)&#45;&gt;AppModule</title>
<path fill="none" stroke="#000000" d="M886,-122.2222C886,-140.8285 886,-167 886,-167 886,-167 1528.1501,-167 1528.1501,-167"/>
<polygon fill="#000000" stroke="#000000" points="1528.1501,-170.5001 1538.1501,-167 1528.15,-163.5001 1528.1501,-170.5001"/>
</g>
<!-- NgbModule.forRoot() -->
<g id="node16" class="node">
<title>NgbModule.forRoot()</title>
<polygon fill="#8dd3c7" stroke="#000000" points="772.026,-122 769.026,-126 748.026,-126 745.026,-122 631.974,-122 631.974,-86 772.026,-86 772.026,-122"/>
<text text-anchor="middle" x="702" y="-99.8" font-family="Times,serif" font-size="14.00" fill="#000000">NgbModule.forRoot()</text>
</g>
<!-- NgbModule.forRoot()&#45;&gt;AppModule -->
<g id="edge15" class="edge">
<title>NgbModule.forRoot()&#45;&gt;AppModule</title>
<path fill="none" stroke="#000000" d="M702,-122.308C702,-142.1455 702,-171 702,-171 702,-171 1528.2429,-171 1528.2429,-171"/>
<polygon fill="#000000" stroke="#000000" points="1528.2429,-174.5001 1538.2429,-171 1528.2429,-167.5001 1528.2429,-174.5001"/>
</g>
<!-- ValidationService -->
<g id="node19" class="node">
<title>ValidationService</title>
<ellipse fill="#fdb462" stroke="#000000" cx="527" cy="-104" rx="80.5142" ry="18"/>
<text text-anchor="middle" x="527" y="-99.8" font-family="Times,serif" font-size="14.00" fill="#000000">ValidationService</text>
</g>
<!-- ValidationService&#45;&gt;AppModule -->
<g id="edge18" class="edge">
<title>ValidationService&#45;&gt;AppModule</title>
<path fill="none" stroke="#000000" d="M527,-122.2843C527,-143.3211 527,-175 527,-175 527,-175 1528.0713,-175 1528.0713,-175"/>
<polygon fill="#000000" stroke="#000000" points="1528.0714,-178.5001 1538.0713,-175 1528.0713,-171.5001 1528.0714,-178.5001"/>
</g>
<!-- GlobalsService -->
<g id="node20" class="node">
<title>GlobalsService</title>
<ellipse fill="#fdb462" stroke="#000000" cx="358" cy="-104" rx="70.0596" ry="18"/>
<text text-anchor="middle" x="358" y="-99.8" font-family="Times,serif" font-size="14.00" fill="#000000">GlobalsService</text>
</g>
<!-- GlobalsService&#45;&gt;AppModule -->
<g id="edge19" class="edge">
<title>GlobalsService&#45;&gt;AppModule</title>
<path fill="none" stroke="#000000" d="M358,-122.1554C358,-144.3519 358,-179 358,-179 358,-179 1528.2895,-179 1528.2895,-179"/>
<polygon fill="#000000" stroke="#000000" points="1528.2895,-182.5001 1538.2895,-179 1528.2895,-175.5001 1528.2895,-182.5001"/>
</g>
<!-- CompanyDataLoaderService -->
<g id="node21" class="node">
<title>CompanyDataLoaderService</title>
<ellipse fill="#fdb462" stroke="#000000" cx="147" cy="-104" rx="123.2359" ry="18"/>
<text text-anchor="middle" x="147" y="-99.8" font-family="Times,serif" font-size="14.00" fill="#000000">CompanyDataLoaderService</text>
</g>
<!-- CompanyDataLoaderService&#45;&gt;AppModule -->
<g id="edge20" class="edge">
<title>CompanyDataLoaderService&#45;&gt;AppModule</title>
<path fill="none" stroke="#000000" d="M147,-122.3228C147,-145.6602 147,-183 147,-183 147,-183 1528.2746,-183 1528.2746,-183"/>
<polygon fill="#000000" stroke="#000000" points="1528.2747,-186.5001 1538.2746,-183 1528.2746,-179.5001 1528.2747,-186.5001"/>
</g>
</g>
</svg>
